<svg width="137" height="61" viewBox="0 0 137 61" fill="none" xmlns="http://www.w3.org/2000/svg">
<path d="M19.2788 51.6164C15.291 51.6164 11.385 51.6164 7.45853 51.6164C5.0045 51.6164 4.41144 50.962 4.41144 48.3239C4.41144 43.5999 4.41144 38.8759 4.41144 34.1724C4.41144 33.6815 4.41144 33.1907 4.41144 32.5977C2.75497 32.4136 0.791748 32.7204 0.791748 30.2255C0.791748 27.7305 2.75497 28.0168 4.41144 27.8737C4.41144 26.0127 4.41144 24.254 4.41144 22.4748C4.41144 18.9778 4.41144 15.4604 4.41144 11.9634C4.41144 9.50936 5.06585 8.81405 7.31538 8.81405C11.2827 8.81405 15.2501 8.81405 19.4628 8.81405C19.4628 6.91218 19.4628 5.11256 19.4628 3.31294C19.4628 0.633958 20.0559 0 22.4895 0C29.238 0 35.9662 0 42.7147 0C44.9234 0 45.5982 0.736209 45.5982 3.21069C45.5982 9.44801 45.5982 15.7058 45.5982 21.9431C45.5982 22.5362 45.5982 23.1292 45.5982 23.845H91.5499C91.5704 23.3337 91.6113 22.802 91.6113 22.2703C91.6113 15.9307 91.6113 9.57071 91.6113 3.23114C91.6113 0.715759 92.2043 0.0204502 94.4334 0.0204502C101.264 0.0204502 108.094 0.0204502 114.925 0.0204502C117.01 0.0204502 117.665 0.756659 117.685 3.00619C117.685 4.78536 117.685 6.56453 117.726 8.32325C117.726 8.40505 117.788 8.5073 117.89 8.73225C118.319 8.7527 118.81 8.7936 119.301 8.7936C122.634 8.7936 125.947 8.7936 129.281 8.7936C132.348 8.7936 132.737 9.22306 132.737 12.536C132.737 17.0555 132.737 21.575 132.737 26.0945C132.737 26.6467 132.737 27.1784 132.737 27.8123C134.414 27.9555 136.234 27.751 136.418 30.1846C136.52 31.5956 135.702 32.1273 132.737 32.6795C132.737 33.2316 132.737 33.8247 132.737 34.4178C132.737 39.1418 132.737 43.8658 132.737 48.5693C132.737 50.8802 132.103 51.5755 130.017 51.596C126.458 51.596 122.9 51.596 119.362 51.596C118.871 51.596 118.36 51.596 117.685 51.596C117.685 53.6614 117.685 55.5633 117.685 57.4856C117.685 59.6534 116.99 60.3896 115.006 60.3896C108.074 60.3896 101.162 60.3896 94.2289 60.3896C92.2861 60.3896 91.6113 59.6125 91.6113 57.4243C91.6113 51.0847 91.6113 44.7247 91.6113 38.3851C91.6113 37.8329 91.6113 37.2808 91.6113 36.565H45.6391C45.6187 37.0967 45.5778 37.6284 45.5778 38.1601C45.5778 44.4997 45.5778 50.8597 45.5778 57.1993C45.5778 59.6738 44.9234 60.3896 42.7147 60.3896C35.9253 60.3896 29.1358 60.3896 22.3463 60.3896C20.0354 60.3896 19.4424 59.7147 19.4424 57.1175C19.4424 55.502 19.4424 53.8659 19.4015 52.2504C19.4015 52.1072 19.3401 51.9641 19.2379 51.596L19.2788 51.6164ZM41.3446 55.7883V4.70356H23.7165V55.7883H41.3446ZM113.473 55.7883V4.70356H95.8649V55.7883H113.473ZM128.544 46.9947V13.5176H117.808V46.9947H128.544ZM19.3606 46.9947V13.5176H8.66509V46.9947H19.3606ZM45.68 31.7388H91.509V28.6099H45.68V31.7388Z" fill="#A32727"/>
<path d="M45.6799 31.7388V28.6099H91.5089V31.7388H45.6799Z" fill="#1D1D1B"/>
</svg>
