<svg width="145" height="194" viewBox="0 0 145 194" fill="none" xmlns="http://www.w3.org/2000/svg">
<path d="M63.5381 194C49.8063 194 37.5612 192.164 26.8648 188.492C16.1478 184.82 7.18599 180.128 0 174.396L8.34231 156.689C16.1891 162.238 24.4901 166.583 33.2455 169.704C42.0008 172.846 52.5114 174.396 64.7771 174.396C79.0045 174.396 90.052 171.499 97.8988 165.665C105.746 159.851 110.412 152.201 111.878 142.715C113.179 133.964 111.713 126.926 107.459 121.663C103.206 116.38 95.2762 112.952 83.6506 111.341L60.5853 107.322C44.5614 104.813 33.0597 98.8768 26.1215 89.4725C19.1626 80.0887 16.7466 68.1346 18.8735 53.6509C20.3396 42.9207 24.1391 33.5777 30.2926 25.6219C36.4255 17.666 44.5614 11.4034 54.7002 6.83386C64.8391 2.26435 76.444 0 89.5357 0C101.306 0 111.982 1.83596 121.563 5.50789C131.124 9.17981 138.95 13.9533 145 19.8692L136.905 37.576C130.525 31.6805 123.318 27.213 115.306 24.1531C107.294 21.1136 98.0433 19.5836 87.5741 19.5836C73.8422 19.5836 62.7122 22.7251 54.2046 28.9674C45.6971 35.2301 40.6174 43.6347 38.9861 54.1813C37.6851 63.4835 39.1512 70.9905 43.405 76.7228C47.6588 82.4551 55.6708 86.2086 67.4409 87.9834L90.5062 91.7369C106.695 94.2461 118.197 99.7947 124.97 108.383C131.764 116.971 134.097 128.681 131.97 143.531C130.649 153.017 127.014 161.605 121.047 169.296C115.079 176.987 107.232 183.025 97.4857 187.411C87.7599 191.797 76.4234 193.98 63.4969 193.98L63.5381 194Z" fill="#A32727"/>
</svg>
