{
	"asset":{
		"generator":"Khronos glTF Blender I/O v3.6.28",
		"version":"2.0"
	},
	"extensionsUsed":[
		"KHR_materials_clearcoat"
	],
	"scene":0,
	"scenes":[
		{
			"name":"Scene",
			"nodes":[
				0
			]
		}
	],
	"nodes":[
		{
			"mesh":0,
			"name":"Torus"
		}
	],
	"materials":[
		{
			"doubleSided":true,
			"extensions":{
				"KHR_materials_clearcoat":{
					"clearcoatFactor":0.9055117964744568,
					"clearcoatRoughnessFactor":0.23472441732883453
				}
			},
			"name":"Material.001",
			"pbrMetallicRoughness":{
				"baseColorFactor":[
					0.4479755163192749,
					0.35081756114959717,
					0.02065088413655758,
					1
				],
				"metallicFactor":0,
				"roughnessFactor":0.5
			}
		}
	],
	"meshes":[
		{
			"name":"Torus",
			"primitives":[
				{
					"attributes":{
						"POSITION":0,
						"NORMAL":1,
						"TEXCOORD_0":2
					},
					"indices":3,
					"material":0
				}
			]
		}
	],
	"accessors":[
		{
			"bufferView":0,
			"componentType":5126,
			"count":11001,
			"max":[
				1.6323306560516357,
				0.5807792544364929,
				1.632331132888794
			],
			"min":[
				-1.6323307752609253,
				-0.5810600519180298,
				-1.6323305368423462
			],
			"type":"VEC3"
		},
		{
			"bufferView":1,
			"componentType":5126,
			"count":11001,
			"type":"VEC3"
		},
		{
			"bufferView":2,
			"componentType":5126,
			"count":11001,
			"type":"VEC2"
		},
		{
			"bufferView":3,
			"componentType":5123,
			"count":64512,
			"type":"SCALAR"
		}
	],
	"bufferViews":[
		{
			"buffer":0,
			"byteLength":132012,
			"byteOffset":0,
			"target":34962
		},
		{
			"buffer":0,
			"byteLength":132012,
			"byteOffset":132012,
			"target":34962
		},
		{
			"buffer":0,
			"byteLength":88008,
			"byteOffset":264024,
			"target":34962
		},
		{
			"buffer":0,
			"byteLength":129024,
			"byteOffset":352032,
			"target":34963
		}
	],
	"buffers":[
		{
			"byteLength":481056,
			"uri":"pool_ring.bin"
		}
	]
}
