{
  "accessors": [
    {
      "bufferView": 2,
      "componentType": 5126,
      "count": 1970,
      "max": [
        39.90071105957031,
        7.85372257232666,
        1.000000238418579
      ],
      "min": [
        -80.09735107421875,
        1.6112964153289795,
        -81.86199951171875
      ],
      "type": "VEC3"
    },
    {
      "bufferView": 2,
      "byteOffset": 23640,
      "componentType": 5126,
      "count": 1970,
      "max": [
        0.999713122844696,
        0.6857038736343384,
        0.999713122844696
      ],
      "min": [
        -0.999713122844696,
        -0.7431618571281433,
        -0.9997131824493408
      ],
      "type": "VEC3"
    },
    {
      "bufferView": 1,
      "componentType": 5126,
      "count": 1970,
      "max": [
        0.0,
        0.0
      ],
      "min": [
        0.0,
        0.0
      ],
      "type": "VEC2"
    },
    {
      "bufferView": 1,
      "byteOffset": 15760,
      "componentType": 5126,
      "count": 1970,
      "max": [
        2.8095245361328125,
        3.0
      ],
      "min": [
        -1.873016357421875,
        -2.0
      ],
      "type": "VEC2"
    },
    {
      "bufferView": 0,
      "componentType": 5125,
      "count": 7584,
      "type": "SCALAR"
    },
    {
      "bufferView": 2,
      "byteOffset": 47280,
      "componentType": 5126,
      "count": 410,
      "max": [
        0.20002102851867676,
        0.34425485134124756,
        1.0
      ],
      "min": [
        -0.4072147011756897,
        0.0,
        0.8848207592964172
      ],
      "type": "VEC3"
    },
    {
      "bufferView": 2,
      "byteOffset": 52200,
      "componentType": 5126,
      "count": 410,
      "max": [
        1.0,
        1.0,
        1.0
      ],
      "min": [
        -1.0,
        -1.0,
        -1.0
      ],
      "type": "VEC3"
    },
    {
      "bufferView": 1,
      "byteOffset": 31520,
      "componentType": 5126,
      "count": 410,
      "max": [
        0.5000000596046448,
        0.0837986022233963
      ],
      "min": [
        0.0,
        0.0
      ],
      "type": "VEC2"
    },
    {
      "bufferView": 1,
      "byteOffset": 34800,
      "componentType": 5126,
      "count": 410,
      "max": [
        2.3185179233551025,
        2.6826183795928955
      ],
      "min": [
        -0.5650069713592529,
        0.4927714467048645
      ],
      "type": "VEC2"
    },
    {
      "bufferView": 0,
      "byteOffset": 30336,
      "componentType": 5125,
      "count": 606,
      "type": "SCALAR"
    },
    {
      "bufferView": 2,
      "byteOffset": 57120,
      "componentType": 5126,
      "count": 23064,
      "max": [
        1.0000001192092896,
        0.14773206412792206,
        0.8848202228546143
      ],
      "min": [
        -0.30087926983833313,
        0.06192927062511444,
        -0.8673592805862427
      ],
      "type": "VEC3"
    },
    {
      "bufferView": 2,
      "byteOffset": 333888,
      "componentType": 5126,
      "count": 23064,
      "max": [
        1.0,
        1.0,
        1.0
      ],
      "min": [
        -1.0,
        -1.0,
        -1.0
      ],
      "type": "VEC3"
    },
    {
      "bufferView": 1,
      "byteOffset": 38080,
      "componentType": 5126,
      "count": 23064,
      "max": [
        1.0015209913253784,
        0.9170031547546387
      ],
      "min": [
        0.18593555688858032,
        0.08299698680639267
      ],
      "type": "VEC2"
    },
    {
      "bufferView": 1,
      "byteOffset": 222592,
      "componentType": 5126,
      "count": 23064,
      "max": [
        2.984175443649292,
        3.000000476837158
      ],
      "min": [
        -1.9894503355026245,
        -2.000000238418579
      ],
      "type": "VEC2"
    },
    {
      "bufferView": 0,
      "byteOffset": 32760,
      "componentType": 5125,
      "count": 125952,
      "type": "SCALAR"
    },
    {
      "bufferView": 2,
      "byteOffset": 610656,
      "componentType": 5126,
      "count": 412,
      "max": [
        0.20002102851867676,
        0.34425485134124756,
        -0.8673406839370728
      ],
      "min": [
        -0.4072147011756897,
        0.0,
        -1.0
      ],
      "type": "VEC3"
    },
    {
      "bufferView": 2,
      "byteOffset": 615600,
      "componentType": 5126,
      "count": 412,
      "max": [
        1.0,
        1.0,
        1.0
      ],
      "min": [
        -1.0,
        -1.0,
        -1.0
      ],
      "type": "VEC3"
    },
    {
      "bufferView": 1,
      "byteOffset": 407104,
      "componentType": 5126,
      "count": 412,
      "max": [
        0.5000000596046448,
        1.0000001192092896
      ],
      "min": [
        0.0,
        0.9162013530731201
      ],
      "type": "VEC2"
    },
    {
      "bufferView": 1,
      "byteOffset": 410400,
      "componentType": 5126,
      "count": 412,
      "max": [
        2.5115888118743896,
        2.6826186180114746
      ],
      "min": [
        -0.3119696080684662,
        -0.15030202269554138
      ],
      "type": "VEC2"
    },
    {
      "bufferView": 0,
      "byteOffset": 536568,
      "componentType": 5125,
      "count": 612,
      "type": "SCALAR"
    },
    {
      "bufferView": 2,
      "byteOffset": 620544,
      "componentType": 5126,
      "count": 389,
      "max": [
        1.0,
        0.06192927807569504,
        0.8848199844360352
      ],
      "min": [
        -0.30087918043136597,
        0.0,
        -0.8673475384712219
      ],
      "type": "VEC3"
    },
    {
      "bufferView": 2,
      "byteOffset": 625212,
      "componentType": 5126,
      "count": 389,
      "max": [
        1.0,
        1.0,
        1.0
      ],
      "min": [
        -1.0,
        -1.0,
        -1.0
      ],
      "type": "VEC3"
    },
    {
      "bufferView": 1,
      "byteOffset": 413696,
      "componentType": 5126,
      "count": 389,
      "max": [
        1.0,
        0.9162014722824097
      ],
      "min": [
        0.0,
        0.0
      ],
      "type": "VEC2"
    },
    {
      "bufferView": 1,
      "byteOffset": 416808,
      "componentType": 5126,
      "count": 389,
      "max": [
        2.9726693630218506,
        2.7667322158813477
      ],
      "min": [
        -0.4221052825450897,
        -2.0
      ],
      "type": "VEC2"
    },
    {
      "bufferView": 0,
      "byteOffset": 539016,
      "componentType": 5125,
      "count": 591,
      "type": "SCALAR"
    },
    {
      "bufferView": 2,
      "byteOffset": 629880,
      "componentType": 5126,
      "count": 576,
      "max": [
        -0.3019644618034363,
        0.34425485134124756,
        0.8848620057106018
      ],
      "min": [
        -0.4072147011756897,
        0.0,
        -0.8673468828201294
      ],
      "type": "VEC3"
    },
    {
      "bufferView": 2,
      "byteOffset": 636792,
      "componentType": 5126,
      "count": 576,
      "max": [
        0.9938329458236694,
        1.0,
        0.9999999403953552
      ],
      "min": [
        -1.0,
        -1.0,
        -1.0
      ],
      "type": "VEC3"
    },
    {
      "bufferView": 1,
      "byteOffset": 419920,
      "componentType": 5126,
      "count": 576,
      "max": [
        0.18692916631698608,
        0.9328309893608093
      ],
      "min": [
        0.0,
        0.05882751941680908
      ],
      "type": "VEC2"
    },
    {
      "bufferView": 1,
      "byteOffset": 424528,
      "componentType": 5126,
      "count": 576,
      "max": [
        2.3266804218292236,
        2.677067279815674
      ],
      "min": [
        -0.5650069713592529,
        -2.0
      ],
      "type": "VEC2"
    },
    {
      "bufferView": 0,
      "byteOffset": 541380,
      "componentType": 5125,
      "count": 852,
      "type": "SCALAR"
    },
    {
      "bufferView": 2,
      "byteOffset": 643704,
      "componentType": 5126,
      "count": 1734,
      "max": [
        -0.20605875551700592,
        0.5260397791862488,
        0.8848202228546143
      ],
      "min": [
        -0.3365352749824524,
        0.2024550586938858,
        0.30367615818977356
      ],
      "type": "VEC3"
    },
    {
      "bufferView": 2,
      "byteOffset": 664512,
      "componentType": 5126,
      "count": 1734,
      "max": [
        0.9986880421638489,
        0.9986572861671448,
        1.0
      ],
      "min": [
        -0.9986880421638489,
        -0.9986575245857239,
        -1.0
      ],
      "type": "VEC3"
    },
    {
      "bufferView": 1,
      "byteOffset": 429136,
      "componentType": 5126,
      "count": 1734,
      "max": [
        0.18692918121814728,
        0.36126628518104553
      ],
      "min": [
        0.1869291067123413,
        0.08379857242107391
      ],
      "type": "VEC2"
    },
    {
      "bufferView": 1,
      "byteOffset": 443008,
      "componentType": 5126,
      "count": 1734,
      "max": [
        2.7779314517974854,
        2.7699878215789795
      ],
      "min": [
        -1.9894503355026245,
        0.4927714765071869
      ],
      "type": "VEC2"
    },
    {
      "bufferView": 0,
      "byteOffset": 544788,
      "componentType": 5125,
      "count": 9216,
      "type": "SCALAR"
    },
    {
      "bufferView": 2,
      "byteOffset": 685320,
      "componentType": 5126,
      "count": 1734,
      "max": [
        -0.20605875551700592,
        0.5260397791862488,
        -0.27746760845184326
      ],
      "min": [
        -0.3365352749824524,
        0.2024550586938858,
        -0.8673477172851563
      ],
      "type": "VEC3"
    },
    {
      "bufferView": 2,
      "byteOffset": 706128,
      "componentType": 5126,
      "count": 1734,
      "max": [
        0.9986880421638489,
        0.9986570477485657,
        1.0
      ],
      "min": [
        -0.9986880421638489,
        -0.9986574649810791,
        -1.0
      ],
      "type": "VEC3"
    },
    {
      "bufferView": 1,
      "byteOffset": 456880,
      "componentType": 5126,
      "count": 1734,
      "max": [
        0.18692918121814728,
        0.9162015914916992
      ],
      "min": [
        0.1869291067123413,
        0.6387338042259216
      ],
      "type": "VEC2"
    },
    {
      "bufferView": 1,
      "byteOffset": 470752,
      "componentType": 5126,
      "count": 1734,
      "max": [
        2.6381609439849854,
        2.7699878215789795
      ],
      "min": [
        0.16360439360141754,
        1.3473632335662842
      ],
      "type": "VEC2"
    },
    {
      "bufferView": 0,
      "byteOffset": 581652,
      "componentType": 5125,
      "count": 9216,
      "type": "SCALAR"
    },
    {
      "bufferView": 2,
      "byteOffset": 726936,
      "componentType": 5126,
      "count": 1734,
      "max": [
        -0.20605875551700592,
        0.5260397791862488,
        0.3036762475967407
      ],
      "min": [
        -0.3365352749824524,
        0.2024550586938858,
        -0.27746766805648804
      ],
      "type": "VEC3"
    },
    {
      "bufferView": 2,
      "byteOffset": 747744,
      "componentType": 5126,
      "count": 1734,
      "max": [
        0.9986880421638489,
        0.9986572265625,
        1.0
      ],
      "min": [
        -0.9986880421638489,
        -0.9986575245857239,
        -1.0
      ],
      "type": "VEC3"
    },
    {
      "bufferView": 1,
      "byteOffset": 484624,
      "componentType": 5126,
      "count": 1734,
      "max": [
        0.18692918121814728,
        0.6387339234352112
      ],
      "min": [
        0.1869291067123413,
        0.361266165971756
      ],
      "type": "VEC2"
    },
    {
      "bufferView": 1,
      "byteOffset": 498496,
      "componentType": 5126,
      "count": 1734,
      "max": [
        2.8502252101898193,
        2.7699875831604004
      ],
      "min": [
        -1.5387319326400757,
        -0.35398754477500916
      ],
      "type": "VEC2"
    },
    {
      "bufferView": 0,
      "byteOffset": 618516,
      "componentType": 5125,
      "count": 9216,
      "type": "SCALAR"
    },
    {
      "bufferView": 2,
      "byteOffset": 768552,
      "componentType": 5126,
      "count": 27476,
      "max": [
        -0.20515267550945282,
        0.5217199921607971,
        0.8737128376960754
      ],
      "min": [
        -0.3374570608139038,
        0.20676952600479126,
        -0.8477894067764282
      ],
      "type": "VEC3"
    },
    {
      "bufferView": 2,
      "byteOffset": 1098264,
      "componentType": 5126,
      "count": 27476,
      "max": [
        0.9964354634284973,
        0.9964355230331421,
        0.9931880831718445
      ],
      "min": [
        -0.9964357614517212,
        -0.9964355826377869,
        -0.9931880235671997
      ],
      "type": "VEC3"
    },
    {
      "bufferView": 1,
      "byteOffset": 512368,
      "componentType": 5126,
      "count": 27476,
      "max": [
        1.0,
        1.0
      ],
      "min": [
        0.0,
        0.0
      ],
      "type": "VEC2"
    },
    {
      "bufferView": 0,
      "byteOffset": 655380,
      "componentType": 5125,
      "count": 41472,
      "type": "SCALAR"
    }
  ],
  "asset": {
    "extras": {
      "author": "Seedy.Cn (https://sketchfab.com/Seedy.Cn)",
      "license": "SKETCHFAB Standard (https://sketchfab.com/licenses)",
      "source": "https://sketchfab.com/3d-models/minimalist-l-shaped-sofa-df0776baf3474b16b1ea3f615153be2d",
      "title": "Minimalist L-Shaped Sofa"
    },
    "generator": "Sketchfab-16.29.0",
    "version": "2.0"
  },
  "bufferViews": [
    {
      "buffer": 0,
      "byteLength": 821268,
      "name": "floatBufferViews",
      "target": 34963
    },
    {
      "buffer": 0,
      "byteLength": 732176,
      "byteOffset": 821268,
      "byteStride": 8,
      "name": "floatBufferViews",
      "target": 34962
    },
    {
      "buffer": 0,
      "byteLength": 1427976,
      "byteOffset": 1553444,
      "byteStride": 12,
      "name": "floatBufferViews",
      "target": 34962
    }
  ],
  "buffers": [
    {
      "byteLength": 2981420,
      "uri": "scene.bin"
    }
  ],
  "materials": [
    {
      "doubleSided": true,
      "name": "Wood",
      "pbrMetallicRoughness": {
        "baseColorFactor": [
          0.19802327142925605,
          0.06064634121372889,
          0.06064634121372889,
          1.0
        ],
        "metallicFactor": 0.0,
        "roughnessFactor": 0.0
      }
    },
    {
      "doubleSided": true,
      "name": "White_Cotton"
    }
  ],
  "meshes": [
    {
      "name": "Object_0",
      "primitives": [
        {
          "attributes": {
            "NORMAL": 1,
            "POSITION": 0,
            "TEXCOORD_0": 2,
            "TEXCOORD_1": 3
          },
          "indices": 4,
          "material": 0,
          "mode": 4
        }
      ]
    },
    {
      "name": "Object_1",
      "primitives": [
        {
          "attributes": {
            "NORMAL": 6,
            "POSITION": 5,
            "TEXCOORD_0": 7,
            "TEXCOORD_1": 8
          },
          "indices": 9,
          "material": 1,
          "mode": 4
        }
      ]
    },
    {
      "name": "Object_2",
      "primitives": [
        {
          "attributes": {
            "NORMAL": 11,
            "POSITION": 10,
            "TEXCOORD_0": 12,
            "TEXCOORD_1": 13
          },
          "indices": 14,
          "material": 1,
          "mode": 4
        }
      ]
    },
    {
      "name": "Object_3",
      "primitives": [
        {
          "attributes": {
            "NORMAL": 16,
            "POSITION": 15,
            "TEXCOORD_0": 17,
            "TEXCOORD_1": 18
          },
          "indices": 19,
          "material": 1,
          "mode": 4
        }
      ]
    },
    {
      "name": "Object_4",
      "primitives": [
        {
          "attributes": {
            "NORMAL": 21,
            "POSITION": 20,
            "TEXCOORD_0": 22,
            "TEXCOORD_1": 23
          },
          "indices": 24,
          "material": 1,
          "mode": 4
        }
      ]
    },
    {
      "name": "Object_5",
      "primitives": [
        {
          "attributes": {
            "NORMAL": 26,
            "POSITION": 25,
            "TEXCOORD_0": 27,
            "TEXCOORD_1": 28
          },
          "indices": 29,
          "material": 1,
          "mode": 4
        }
      ]
    },
    {
      "name": "Object_6",
      "primitives": [
        {
          "attributes": {
            "NORMAL": 31,
            "POSITION": 30,
            "TEXCOORD_0": 32,
            "TEXCOORD_1": 33
          },
          "indices": 34,
          "material": 1,
          "mode": 4
        }
      ]
    },
    {
      "name": "Object_7",
      "primitives": [
        {
          "attributes": {
            "NORMAL": 36,
            "POSITION": 35,
            "TEXCOORD_0": 37,
            "TEXCOORD_1": 38
          },
          "indices": 39,
          "material": 1,
          "mode": 4
        }
      ]
    },
    {
      "name": "Object_8",
      "primitives": [
        {
          "attributes": {
            "NORMAL": 41,
            "POSITION": 40,
            "TEXCOORD_0": 42,
            "TEXCOORD_1": 43
          },
          "indices": 44,
          "material": 1,
          "mode": 4
        }
      ]
    },
    {
      "name": "Object_9",
      "primitives": [
        {
          "attributes": {
            "NORMAL": 46,
            "POSITION": 45,
            "TEXCOORD_0": 47
          },
          "indices": 48,
          "material": 1,
          "mode": 4
        }
      ]
    }
  ],
  "nodes": [
    {
      "children": [
        1
      ],
      "matrix": [
        1.0,
        0.0,
        0.0,
        0.0,
        0.0,
        2.220446049250313e-16,
        -1.0,
        0.0,
        0.0,
        1.0,
        2.220446049250313e-16,
        0.0,
        0.0,
        0.0,
        0.0,
        1.0
      ],
      "name": "Sketchfab_model"
    },
    {
      "children": [
        2
      ],
      "name": "root"
    },
    {
      "children": [
        3,
        5,
        7,
        9,
        11,
        13,
        15,
        17,
        19,
        21
      ],
      "matrix": [
        1.0,
        0.0,
        0.0,
        0.0,
        0.0,
        2.220446049250313e-16,
        1.0,
        0.0,
        0.0,
        -1.0,
        2.220446049250313e-16,
        0.0,
        0.0,
        0.0,
        0.0,
        1.0
      ],
      "name": "GLTF_SceneRootNode"
    },
    {
      "children": [
        4
      ],
      "matrix": [
        0.0,
        0.0,
        -0.01609233394265175,
        0.0,
        0.0,
        0.021197114139795303,
        0.0,
        0.0,
        0.01609233394265175,
        0.0,
        0.0,
        0.0,
        1.3788198232650757,
        0.28494787216186523,
        -3.6243090629577637,
        1.0
      ],
      "name": "Circle.001_0"
    },
    {
      "mesh": 0,
      "name": "Object_4"
    },
    {
      "children": [
        6
      ],
      "matrix": [
        1.0,
        0.0,
        0.0,
        0.0,
        0.0,
        1.0,
        0.0,
        0.0,
        0.0,
        0.0,
        1.0,
        0.0,
        0.4293508529663086,
        0.45142412185668945,
        -3.3032684326171875,
        1.0
      ],
      "name": "Plane.001_1"
    },
    {
      "mesh": 1,
      "name": "Object_6"
    },
    {
      "children": [
        8
      ],
      "matrix": [
        1.0,
        0.0,
        0.0,
        0.0,
        0.0,
        1.3243827819824219,
        0.0,
        0.0,
        0.0,
        0.0,
        1.0,
        0.0,
        0.4293508529663086,
        0.42786458134651184,
        -3.3032684326171875,
        1.0
      ],
      "name": "Plane.002_2"
    },
    {
      "mesh": 2,
      "name": "Object_8"
    },
    {
      "children": [
        10
      ],
      "matrix": [
        1.0,
        0.0,
        0.0,
        0.0,
        0.0,
        1.0,
        0.0,
        0.0,
        0.0,
        0.0,
        1.0,
        0.0,
        0.4293508529663086,
        0.45142412185668945,
        -3.3032684326171875,
        1.0
      ],
      "name": "Plane.003_3"
    },
    {
      "mesh": 3,
      "name": "Object_10"
    },
    {
      "children": [
        12
      ],
      "matrix": [
        1.0,
        0.0,
        0.0,
        0.0,
        0.0,
        1.0,
        0.0,
        0.0,
        0.0,
        0.0,
        1.0,
        0.0,
        0.4293508529663086,
        0.45142412185668945,
        -3.3032684326171875,
        1.0
      ],
      "name": "Plane.004_4"
    },
    {
      "mesh": 4,
      "name": "Object_12"
    },
    {
      "children": [
        14
      ],
      "matrix": [
        1.0,
        0.0,
        0.0,
        0.0,
        0.0,
        1.0,
        0.0,
        0.0,
        0.0,
        0.0,
        1.0,
        0.0,
        0.4293508529663086,
        0.45142412185668945,
        -3.3032684326171875,
        1.0
      ],
      "name": "Plane.006_6"
    },
    {
      "mesh": 5,
      "name": "Object_14"
    },
    {
      "children": [
        16
      ],
      "matrix": [
        1.0,
        0.0,
        0.0,
        0.0,
        0.0,
        1.0,
        0.0,
        0.0,
        0.0,
        0.0,
        1.0,
        0.0,
        0.4293508529663086,
        0.41012322902679443,
        -3.3032684326171875,
        1.0
      ],
      "name": "Plane.008_8"
    },
    {
      "mesh": 6,
      "name": "Object_16"
    },
    {
      "children": [
        18
      ],
      "matrix": [
        1.0,
        0.0,
        0.0,
        0.0,
        0.0,
        1.0,
        0.0,
        0.0,
        0.0,
        0.0,
        1.0,
        0.0,
        0.4293508529663086,
        0.41012322902679443,
        -3.3032684326171875,
        1.0
      ],
      "name": "Plane.009_9"
    },
    {
      "mesh": 7,
      "name": "Object_18"
    },
    {
      "children": [
        20
      ],
      "matrix": [
        1.0,
        0.0,
        0.0,
        0.0,
        0.0,
        1.0,
        0.0,
        0.0,
        0.0,
        0.0,
        1.0,
        0.0,
        0.4293508529663086,
        0.41012322902679443,
        -3.3032684326171875,
        1.0
      ],
      "name": "Plane.010_10"
    },
    {
      "mesh": 8,
      "name": "Object_20"
    },
    {
      "children": [
        22
      ],
      "matrix": [
        1.0,
        0.0,
        0.0,
        0.0,
        0.0,
        1.0,
        0.0,
        0.0,
        0.0,
        0.0,
        1.0,
        0.0,
        0.4293508529663086,
        0.41012322902679443,
        -3.3032684326171875,
        1.0
      ],
      "name": "Plane.013_13"
    },
    {
      "mesh": 9,
      "name": "Object_22"
    }
  ],
  "scene": 0,
  "scenes": [
    {
      "name": "Sketchfab_Scene",
      "nodes": [
        0
      ]
    }
  ]
}
