<svg xmlns="http://www.w3.org/2000/svg" xmlns:xlink="http://www.w3.org/1999/xlink" id="Layer_1" x="0px" y="0px" viewBox="0 0 126 142" style="enable-background:new 0 0 126 142;" xml:space="preserve"><style type="text/css">	.st0{fill:#231F20;}	.st1{fill:#FFFFFF;}</style><rect x="10" class="st0" width="106" height="91"></rect><path class="st0" d="M64.4,140.6c-0.7,0.6-1,1-1.4,1s-0.7-0.3-1.4-1L12,92.2c-1.5-1.5-2.2-2.2-2-2.8c0.3-0.6,1.3-0.6,3.4-0.6h99.3 c2.1,0,3.1,0,3.4,0.6c0.3,0.6-0.5,1.4-2,2.8L64.4,140.6z"></path><path class="st1" d="M93.2,18.6H32.8V76l30.5,35L93.2,76L93.2,18.6z M63.3,97.7l-3.5-4.1l3.4-4l3.5,4.1L63.3,97.7L63.3,97.7z  M67.9,95.1l3.3,3.8l-3.4,4l-3.3-3.8L67.9,95.1L67.9,95.1z M62.1,99.1l-3.3,3.9l-3.5-4l3.3-3.9L62.1,99.1z M58.6,92.2l-24-27.7v-8 L62,88.2L58.6,92.2L58.6,92.2z M64.4,88.1l26.9-32v8.5L68,92.2L64.4,88.1L64.4,88.1z M91.3,20.5l0,32.9L63.3,86.7L34.6,53.6l0-33.2 H91.3z M34.6,67.3l22.8,26.4l-3.3,4L34.6,75.3L34.6,67.3L34.6,67.3z M63.3,108.1l-3.3-3.8l3.3-3.9l3.3,3.8L63.3,108.1L63.3,108.1z  M72.5,97.4l-3.3-3.8l22.2-26.1v7.9L72.5,97.4z"></path><path class="st1" d="M71,60.9h-1.5v1.5H71V60.9z M67,60.5c-0.1,0.2-0.2,0.3-0.2,0.3c-0.1,0.2-0.3,0.4-0.4,0.5h-1.3 c-0.3-0.1-0.4-0.4-0.4-0.4v-3.2c0.1-0.1,0.3-0.4,0.4-0.4h1.3c0.3,0.2,0.4,0.4,0.5,0.7c0,0,0,0,0.1,0.1l1.2-0.4 c-0.1-0.3-0.3-0.7-0.4-0.8c-0.3-0.3-0.7-0.9-1.4-0.9h-1.4c-0.3,0-0.5,0.1-0.7,0.2c-0.2,0.1-0.7,0.6-0.8,0.8 c-0.1,0.2-0.2,0.4-0.2,0.7v3.2c0,0.2,0.1,0.5,0.2,0.7c0.1,0.2,0.5,0.6,0.8,0.8c0.2,0.1,0.4,0.2,0.7,0.2h1.4c0.6,0,1.1-0.5,1.4-0.9 c0.1-0.1,0.3-0.4,0.4-0.8L67,60.5L67,60.5z M62.1,60.9h-1.5v1.5h1.5V60.9z M59,62.5v-6.4h-1.3v2.6h-2.1v-2.6h-1.3v6.4h1.3v-2.6h2.1 v2.6H59z"></path><path class="st1" d="M81.7,47.2h-1.5L79,49.4l-1.3-2.2h-1.5l2.1,3.5v2.8h1.3v-2.8L81.7,47.2z M74.3,49.7c-0.1,0.1-0.2,0.3-0.3,0.3 h-1.8v-1.5H74c0.1,0,0.2,0.2,0.3,0.3V49.7z M76,53.6l-1.6-2.5c0,0,0,0,0,0c0.1,0,0.2-0.1,0.4-0.2c0.2-0.1,0.5-0.4,0.6-0.6 c0.1-0.2,0.2-0.4,0.2-0.7v-0.9c0-0.2-0.1-0.5-0.2-0.7c-0.1-0.1-0.4-0.5-0.6-0.6c-0.2-0.2-0.5-0.2-0.8-0.2h-3.1v6.4h1.3v-2.4H73 l1.6,2.4L76,53.6L76,53.6z M68.4,52c-0.1,0.1-0.3,0.3-0.4,0.4h-1.6c-0.1-0.1-0.3-0.2-0.4-0.4v-3.2c0.1-0.2,0.3-0.3,0.4-0.4H68 c0.1,0.1,0.3,0.3,0.4,0.4V52z M69.7,52v-3.2c0-0.2,0-0.5-0.2-0.7c-0.1-0.2-0.5-0.6-0.8-0.8c-0.2-0.1-0.4-0.2-0.7-0.2h-1.7 c-0.3,0-0.5,0.1-0.7,0.2c-0.2,0.1-0.6,0.6-0.8,0.8c-0.1,0.2-0.2,0.4-0.2,0.7V52c0,0.2,0,0.5,0.2,0.7c0.1,0.2,0.5,0.6,0.8,0.8 c0.2,0.1,0.4,0.2,0.7,0.2H68c0.3,0,0.5-0.1,0.7-0.2c0.2-0.1,0.6-0.6,0.8-0.8C69.6,52.5,69.7,52.2,69.7,52z M63.7,48.5v-1.2H59v1.2 h1.7v5.1H62v-5.1H63.7z M57,51.6c-0.1,0.2-0.2,0.3-0.2,0.3c-0.1,0.2-0.3,0.4-0.4,0.5h-1.3c-0.3-0.1-0.4-0.4-0.4-0.4v-3.2 c0.1-0.1,0.3-0.4,0.4-0.4h1.3c0.3,0.2,0.4,0.4,0.5,0.7c0,0,0,0,0.1,0.1l1.2-0.4c-0.1-0.3-0.3-0.7-0.4-0.8c-0.3-0.3-0.7-0.9-1.4-0.9 h-1.4c-0.3,0-0.5,0.1-0.7,0.2c-0.2,0.1-0.7,0.6-0.8,0.8c-0.1,0.2-0.2,0.4-0.2,0.7V52c0,0.2,0.1,0.5,0.2,0.7c0.1,0.2,0.5,0.6,0.8,0.8 c0.2,0.1,0.4,0.2,0.7,0.2h1.4c0.6,0,1.1-0.5,1.4-0.9c0.1-0.1,0.3-0.4,0.4-0.8L57,51.6L57,51.6z M52.1,47.2h-1.3v6.4h1.3V47.2z  M49.7,47.2h-1.4l-1.5,4.5l-1.5-4.5h-1.4l2.2,6.4h1.4L49.7,47.2z"></path><path class="st1" d="M76.7,43.5h-2.8v-5.1h-1.3v6.4h4.1V43.5z M69.3,42.3h-1.4l0.7-2L69.3,42.3z M71.5,44.8l-2.2-6.4h-1.4l-2.2,6.4 h1.4l0.4-1.2h2.2l0.4,1.2H71.5z M64.7,38.4l-1.3,2.2l-1.3-2.2h-1.5l2.1,3.5v2.8h1.3v-2.8l2.1-3.5H64.7z M58.8,43.2 c-0.1,0.1-0.3,0.3-0.4,0.4h-1.6c-0.1-0.1-0.3-0.2-0.4-0.4V40c0.1-0.2,0.3-0.3,0.4-0.4h1.6c0.1,0.1,0.3,0.3,0.4,0.4V43.2z M60.1,43.2 V40c0-0.2,0-0.5-0.2-0.7c-0.1-0.2-0.5-0.6-0.8-0.8c-0.2-0.1-0.4-0.2-0.7-0.2h-1.7c-0.3,0-0.5,0.1-0.7,0.2c-0.2,0.1-0.6,0.6-0.8,0.8 c-0.1,0.2-0.2,0.4-0.2,0.7v3.2c0,0.2,0,0.5,0.2,0.7c0.1,0.2,0.5,0.6,0.8,0.8c0.2,0.1,0.4,0.2,0.7,0.2h1.7c0.3,0,0.5-0.1,0.7-0.2 c0.2-0.1,0.6-0.6,0.8-0.8C60.1,43.6,60.1,43.4,60.1,43.2z M52.6,40.8c-0.1,0.1-0.2,0.3-0.3,0.3h-1.8v-1.5h1.8c0.1,0,0.2,0.2,0.3,0.3 V40.8z M54.3,44.8l-1.6-2.5c0,0,0,0,0,0c0.1,0,0.2-0.1,0.4-0.2c0.2-0.1,0.5-0.4,0.6-0.6c0.1-0.2,0.2-0.4,0.2-0.7v-0.9 c0-0.2-0.1-0.5-0.2-0.7c-0.1-0.1-0.4-0.5-0.6-0.6c-0.2-0.2-0.5-0.2-0.8-0.2h-3.1v6.4h1.3v-2.4h0.8l1.6,2.4H54.3L54.3,44.8z"></path><path class="st1" d="M66.4,29.7c-0.1,0.3-0.3,0.7-0.6,1h-0.9c0.3-0.5,0.6-0.9,0.7-1.4c0.1-0.2,0.1-0.4,0.1-0.7 c0-0.5-0.1-0.9-0.3-1.3c0.1,0,0.2,0.1,0.3,0.1c0.6,0.3,0.9,0.9,0.9,1.5C66.5,29.3,66.5,29.5,66.4,29.7 M58.9,29.1 c0-0.6,0.3-1.2,0.8-1.5c0.1-0.1,0.3-0.1,0.4-0.2c-0.2,0.4-0.4,0.8-0.4,1.3c0,0.2,0,0.4,0.1,0.6c0.1,0.5,0.3,0.9,0.7,1.4h-1 C59.2,30.4,59,30,59,29.7C58.9,29.5,58.9,29.3,58.9,29.1 M60.9,27.2c0.2-0.1,0.4-0.2,0.6-0.2c0.3,0,0.5,0.1,0.7,0.3 c-0.4,0.3-0.8,1.1-0.8,2.1c0,0.5,0.1,1,0.3,1.4H61c-0.4-0.5-0.7-1-0.8-1.5c0-0.2-0.1-0.4-0.1-0.6C60.1,28.1,60.4,27.5,60.9,27.2  M62.5,27.5v3.2l0.1,0l0.3,0v-3.2c0.3,0.2,0.6,0.9,0.6,1.8c0,0.6-0.1,1.1-0.3,1.4h-1.1l0.1,0c-0.2-0.3-0.3-0.8-0.3-1.4 C61.9,28.4,62.2,27.7,62.5,27.5 M64.5,27.2c0.4,0.3,0.7,0.9,0.7,1.5c0,0.2,0,0.4-0.1,0.6c-0.1,0.5-0.4,1-0.8,1.5h-0.8 c0.2-0.4,0.3-0.9,0.3-1.4c0-1-0.3-1.8-0.8-2.1C63.6,26.9,64.1,26.9,64.5,27.2z M66.9,29.1c0-0.8-0.4-1.5-1.1-1.9 c-0.3-0.2-0.6-0.2-0.9-0.3c-0.1-0.1-0.1-0.1-0.2-0.1c-0.6-0.4-1.3-0.3-1.9,0.1v-0.6c0,0,0,0,0,0l0.3,0.2l-0.4-0.7v0h0l0.7,0.4 L63.3,26c0.2,0,0.3-0.2,0.3-0.2s-0.1-0.2-0.3-0.2l0.2-0.3l-0.7,0.4h0v0l0.4-0.7l-0.3,0.2c0-0.2-0.2-0.3-0.2-0.3s-0.2,0.1-0.2,0.3 L62.2,25l0.4,0.7v0h0l-0.7-0.4l0.2,0.3c-0.2,0-0.3,0.2-0.3,0.2s0.1,0.2,0.3,0.2l-0.2,0.3l0.7-0.4h0v0l-0.4,0.7l0.3-0.2c0,0,0,0,0,0 V27c-0.5-0.5-1.3-0.5-1.9-0.1c-0.1,0-0.1,0.1-0.2,0.1c-0.3,0-0.7,0.1-0.9,0.3c-0.6,0.4-1,1.1-1,1.9c0,0.2,0,0.4,0.1,0.6 c0.1,0.4,0.3,0.7,0.5,1.1V32h7.1v-1.2c0.3-0.3,0.5-0.7,0.5-1C66.9,29.6,66.9,29.3,66.9,29.1"></path><path class="st1" d="M78.3,30.1C78.3,30.1,78.3,30.2,78.3,30.1c-0.1,0.2-0.3,0.3-0.4,0.3c0,0,0,0-0.1,0h-0.5c0,0-0.1,0-0.1,0 c-0.1,0-0.2-0.2-0.2-0.2c0,0,0,0,0-0.1v-0.6c0,0,0-0.1,0-0.1c0-0.1,0.2-0.2,0.2-0.2c0,0,0.1,0,0.1,0H78c0,0,0.1,0,0.1,0 c0.1,0,0.2,0.2,0.2,0.2c0,0,0,0,0,0.1V30.1L78.3,30.1z M78.6,31.3v-1.8c0-0.1,0-0.2-0.1-0.3c0-0.1-0.2-0.2-0.2-0.3 c-0.1-0.1-0.2-0.1-0.3-0.1h-0.6c-0.1,0-0.2,0-0.3,0.1c-0.1,0-0.2,0.2-0.2,0.3c0,0.1-0.1,0.2-0.1,0.3v0.6c0,0.1,0,0.2,0.1,0.3 c0,0.1,0.2,0.2,0.2,0.3c0.1,0.1,0.2,0.1,0.3,0.1h0.5c0.1,0,0.2,0,0.3-0.1c0.1,0,0.1-0.1,0.2-0.2v0.8c0,0,0,0.1,0,0.1 c0,0.1-0.2,0.2-0.2,0.2c0,0-0.1,0-0.1,0h-0.5c0,0-0.1,0-0.1,0c-0.1-0.1-0.3-0.2-0.3-0.4l-0.3,0.1c0,0.1,0.1,0.1,0.1,0.2 c0.1,0.1,0.2,0.3,0.3,0.3c0.1,0,0.2,0.1,0.3,0.1H78c0.1,0,0.2,0,0.3-0.1c0.1,0,0.2-0.2,0.2-0.3C78.6,31.5,78.6,31.4,78.6,31.3  M76.1,31.9v-0.3h-0.7v-2.7h-0.9v0.3h0.6v2.4h-0.7v0.3H76.1z M73.4,30.1C73.4,30.1,73.3,30.2,73.4,30.1c-0.1,0.2-0.3,0.3-0.4,0.3 c0,0,0,0-0.1,0h-0.5c0,0-0.1,0-0.1,0c-0.1,0-0.2-0.2-0.2-0.2c0,0,0,0,0-0.1v-0.6c0,0,0-0.1,0-0.1c0-0.1,0.2-0.2,0.2-0.2 c0,0,0.1,0,0.1,0H73c0,0,0.1,0,0.1,0c0.1,0,0.2,0.2,0.2,0.2c0,0,0,0,0,0.1L73.4,30.1L73.4,30.1z M73.6,31.3v-1.8 c0-0.1,0-0.2-0.1-0.3c0-0.1-0.2-0.2-0.2-0.3c-0.1-0.1-0.2-0.1-0.3-0.1h-0.6c-0.1,0-0.2,0-0.3,0.1c-0.1,0-0.2,0.2-0.2,0.3 c0,0.1-0.1,0.2-0.1,0.3v0.6c0,0.1,0,0.2,0.1,0.3c0,0.1,0.2,0.2,0.2,0.3c0.1,0.1,0.2,0.1,0.3,0.1h0.5c0.1,0,0.2,0,0.3-0.1 c0.1,0,0.1-0.1,0.2-0.2v0.8c0,0,0,0.1,0,0.1c0,0.1-0.2,0.2-0.2,0.2c0,0-0.1,0-0.1,0h-0.5c0,0-0.1,0-0.1,0c-0.1-0.1-0.3-0.2-0.3-0.4 l-0.3,0.1c0,0.1,0.1,0.1,0.1,0.2c0.1,0.1,0.2,0.3,0.3,0.3c0.1,0,0.2,0.1,0.3,0.1H73c0.1,0,0.2,0,0.3-0.1c0.1,0,0.2-0.2,0.2-0.3 C73.6,31.5,73.6,31.4,73.6,31.3 M71.2,31.9v-0.3h-0.7v-2.7h-0.9v0.3h0.6v2.4h-0.7v0.3H71.2z M55.4,31.5H55v0.4h0.4V31.5z M54.3,29.2 v-0.3h-2v0.3h0.8v2.7h0.3v-2.7H54.3z M51.8,31.3v-0.3c0-0.2-0.1-0.4-0.3-0.5l-1.4-0.4c-0.1,0-0.2-0.1-0.2-0.2v-0.3c0,0,0,0,0-0.1 c0.1-0.1,0.2-0.3,0.3-0.3c0,0,0,0,0.1,0h0.7c0,0,0,0,0.1,0c0.1,0,0.2,0.2,0.3,0.3c0,0,0,0,0,0.1l0.3-0.1c0-0.1-0.1-0.1-0.1-0.2 c-0.1-0.1-0.2-0.2-0.3-0.3c-0.1,0-0.2-0.1-0.3-0.1h-0.7c-0.1,0-0.2,0-0.3,0.1c-0.1,0.1-0.3,0.3-0.3,0.3c0,0.1-0.1,0.2-0.1,0.2v0.3 c0,0.2,0.1,0.4,0.3,0.5l1.4,0.4c0.1,0,0.2,0.1,0.2,0.2v0.3c0,0,0,0,0,0.1c-0.1,0.1-0.2,0.3-0.3,0.3c0,0,0,0-0.1,0h-0.8 c0,0-0.1,0-0.1,0c-0.1,0-0.2-0.2-0.3-0.3c0,0,0,0,0-0.1l-0.3,0.1c0,0.1,0.1,0.1,0.1,0.2c0.1,0.1,0.2,0.2,0.3,0.3 c0.1,0,0.2,0.1,0.3,0.1h0.8c0.1,0,0.2,0,0.3-0.1c0.1-0.1,0.3-0.3,0.3-0.3C51.8,31.4,51.8,31.4,51.8,31.3 M49,31.9v-0.3h-1.4v-1.1H49 v-0.3h-1.3v-1.1H49v-0.3h-1.7v3L49,31.9L49,31.9z"></path><path class="st1" d="M62.8,72.4C62.8,72.4,62.8,72.4,62.8,72.4c-0.1-0.1-3.6-3.3-3.6-3.4c0,0-0.1-0.1-0.1-0.1c-0.1,0-0.1,0-0.2,0 c0,0,0,0,0,0c0,0-0.1,0.1-0.1,0.1c0,0,0,0.1,0,0.1c0,0,0,0,0,0.1c0,0,0.1,0.1,0.1,0.1c0.1,0.1,3.4,3.2,3.5,3.3c0,0,0,0,0,0 c0,0,0,0,0,0c-0.2,0.2-0.5,0.4-0.7,0.6c-0.7,0.6-1.4,1.3-2,1.9c-0.1,0.1-0.1,0.1-0.2,0.2c0,0-0.1,0.1-0.1,0.1c-0.1,0-0.1,0-0.1-0.1 c0,0,0,0,0-0.1c0.1-0.1,0-0.3-0.2-0.4c-0.1,0-0.1,0-0.2,0c-0.1,0-0.1,0.1-0.1,0.2c0,0,0,0.1,0,0.1c0,0.1,0,0.2,0,0.4 c0.1,0.2,0.2,0.3,0.4,0.4c0.2,0.1,0.3,0.1,0.5,0c0.1,0,0.2-0.1,0.3-0.2c0.1-0.1,0.1-0.1,0.2-0.2c0.6-0.6,1.2-1.2,1.9-1.8 c0.3-0.3,0.6-0.6,0.8-0.8c0,0,0,0,0,0c0,0,0,0,0,0c0.3,0.3,1.9,1.9,2.5,2.4c0.1,0.1,0.2,0.2,0.3,0.3c0.1,0.1,0.3,0.2,0.4,0.2 c0.1,0,0.2,0.1,0.3,0c0.1,0,0.2-0.1,0.3-0.1c0.2-0.1,0.3-0.3,0.3-0.5c0-0.1,0-0.2-0.1-0.3c0-0.1-0.1-0.1-0.1-0.2 c-0.1-0.1-0.2,0-0.3,0.1c-0.1,0.1-0.1,0.2-0.1,0.3c0,0,0,0.1,0,0.1c0,0,0,0,0,0c0,0-0.1,0-0.1,0c0,0-0.1,0-0.1-0.1 c0,0-0.1-0.1-0.1-0.1c-0.5-0.5-2.4-2.3-2.9-2.7c0,0,0,0,0,0c0.1-0.1,3.1-3,3.6-3.4c0,0,0,0,0.1,0c0,0,0,0,0,0c0,0,0,0,0,0 c0-0.1,0-0.1,0-0.1c0,0-0.1-0.1-0.1-0.1c0,0-0.1-0.1-0.2,0c-0.1,0-0.1,0.1-0.1,0.1C66.3,69.2,63,72.3,62.8,72.4 C62.8,72.4,62.8,72.4,62.8,72.4"></path></svg>